<svg xmlns="http://www.w3.org/2000/svg" width="1280" height="880" viewBox="0 0 1280 880" role="img" aria-labelledby="title desc">
  <title id="title">MACD 다이버전스 추적 롱숏 전략 예시</title>
  <desc id="desc">초록 다이버전스 롱과 빨강 다이버전스 숏을 가상 MACD 패널로 표현한 이미지</desc>
  <defs>
    <linearGradient id="bg" x1="0%" y1="0%" x2="100%" y2="100%">
      <stop offset="0%" stop-color="#f7fbff"/>
      <stop offset="100%" stop-color="#fff9f2"/>
    </linearGradient>
    <style>
      .title { font: 700 34px 'Pretendard','Apple SD Gothic Neo','Malgun Gothic',sans-serif; fill: #14263a; }
      .subtitle { font: 500 17px 'Pretendard','Apple SD Gothic Neo','Malgun Gothic',sans-serif; fill: #58697b; }
      .panelTitle { font: 700 24px 'Pretendard','Apple SD Gothic Neo','Malgun Gothic',sans-serif; fill: #17283b; }
      .label { font: 700 14px 'Pretendard','Apple SD Gothic Neo','Malgun Gothic',sans-serif; fill: #2e4b69; letter-spacing: 0.06em; }
      .body { font: 500 16px 'Pretendard','Apple SD Gothic Neo','Malgun Gothic',sans-serif; fill: #273a4d; }
      .small { font: 500 14px 'Pretendard','Apple SD Gothic Neo','Malgun Gothic',sans-serif; fill: #56687a; }
      .axis { font: 500 12px 'Menlo','Consolas',monospace; fill: #68798a; }
    </style>
  </defs>

  <rect width="1280" height="880" fill="#edf2f7"/>
  <rect x="24" y="24" width="1232" height="832" rx="28" fill="url(#bg)" stroke="#d6e0ea"/>
  <text x="60" y="82" class="title">MACD 다이버전스 추적 · 실전 롱/숏 전략 예시</text>
  <text x="60" y="114" class="subtitle">핵심은 다이버전스 색이 나온 뒤, 같은 방향 MACD 구조와 크로스 원이 다시 이어지는지 확인하는 것입니다</text>

  <rect x="60" y="150" width="540" height="640" rx="26" fill="#ecfff3" stroke="#bfe7cf"/>
  <text x="96" y="190" class="label">LONG SETUP</text>
  <text x="96" y="226" class="panelTitle">초록 다이버전스 유지 뒤 롱 준비</text>
  <rect x="96" y="250" width="468" height="304" rx="20" fill="#ffffff" stroke="#d7e3ed"/>
  <line x1="126" y1="286" x2="534" y2="286" stroke="#edf2f6"/>
  <line x1="126" y1="336" x2="534" y2="336" stroke="#edf2f6"/>
  <line x1="126" y1="386" x2="534" y2="386" stroke="#edf2f6"/>
  <line x1="126" y1="436" x2="534" y2="436" stroke="#edf2f6"/>
  <line x1="126" y1="486" x2="534" y2="486" stroke="#edf2f6"/>
  <text x="544" y="290" class="axis">0.12</text>
  <text x="544" y="340" class="axis">0.08</text>
  <text x="544" y="390" class="axis">0.04</text>
  <text x="544" y="440" class="axis">0.00</text>
  <text x="544" y="490" class="axis">-0.04</text>
  <line x1="126" y1="436" x2="534" y2="436" stroke="#c9d6e3" stroke-width="2.5"/>
  <polyline points="130,404 170,384 210,366 250,372 290,354 330,346 370,330 410,314 450,304 490,292 530,286" fill="none" stroke="#18a957" stroke-width="6" stroke-linecap="round" stroke-linejoin="round"/>
  <polyline points="130,424 170,414 210,402 250,394 290,386 330,374 370,362 410,346 450,336 490,326 530,318" fill="none" stroke="#2563eb" stroke-width="5" stroke-linecap="round" stroke-linejoin="round"/>
  <rect x="144" y="418" width="18" height="18" rx="5" fill="#b8b8b8"/>
  <rect x="176" y="410" width="18" height="26" rx="5" fill="#b8b8b8"/>
  <rect x="208" y="396" width="18" height="40" rx="5" fill="#00c853"/>
  <rect x="240" y="388" width="18" height="48" rx="5" fill="#2e7d32"/>
  <rect x="272" y="380" width="18" height="56" rx="5" fill="#00c853"/>
  <rect x="304" y="372" width="18" height="64" rx="5" fill="#2e7d32"/>
  <rect x="336" y="362" width="18" height="74" rx="5" fill="#00c853"/>
  <rect x="368" y="354" width="18" height="82" rx="5" fill="#2e7d32"/>
  <rect x="400" y="344" width="18" height="92" rx="5" fill="#00c853"/>
  <circle cx="304" cy="372" r="10" fill="#16a34a"/>
  <circle cx="432" cy="308" r="10" fill="#16a34a"/>
  <rect x="254" y="274" width="170" height="30" rx="15" fill="#e5fff0" stroke="#a9e1be"/>
  <text x="278" y="294" class="small">초록 다이버전스 유지 구간</text>
  <circle cx="432" cy="308" r="18" fill="#16a34a"/>
  <text x="426" y="315" class="body" fill="#ffffff">1</text>
  <rect x="356" y="562" width="192" height="34" rx="17" fill="#ecfff3" stroke="#bfe7cf"/>
  <text x="376" y="584" class="small">롱 매수: 초록 유지 + 재상승 크로스</text>
  <circle cx="512" cy="292" r="18" fill="#f59e0b"/>
  <text x="506" y="299" class="body" fill="#ffffff">2</text>
  <rect x="350" y="606" width="198" height="34" rx="17" fill="#fff7df" stroke="#efd07a"/>
  <text x="370" y="628" class="small">롱 매도: 고점 재시험 / 둔화 확인</text>
  <text x="96" y="606" class="body">롱 전략</text>
  <text x="96" y="634" class="small">1. MACD가 Signal 위인지 먼저 확인</text>
  <text x="96" y="656" class="small">2. 초록 다이버전스가 몇 봉 유지되는지 확인</text>
  <text x="96" y="678" class="small">3. 같은 방향 초록 원이 나오면 롱 우선</text>
  <text x="96" y="700" class="small">4. 초록이 바로 사라지면 추격보다 관망</text>

  <rect x="680" y="150" width="540" height="640" rx="26" fill="#fff0f2" stroke="#efc3c9"/>
  <text x="716" y="190" class="label">SHORT SETUP</text>
  <text x="716" y="226" class="panelTitle">빨강 다이버전스 유지 뒤 숏 준비</text>
  <rect x="716" y="250" width="468" height="304" rx="20" fill="#ffffff" stroke="#d7e3ed"/>
  <line x1="746" y1="286" x2="1154" y2="286" stroke="#edf2f6"/>
  <line x1="746" y1="336" x2="1154" y2="336" stroke="#edf2f6"/>
  <line x1="746" y1="386" x2="1154" y2="386" stroke="#edf2f6"/>
  <line x1="746" y1="436" x2="1154" y2="436" stroke="#edf2f6"/>
  <line x1="746" y1="486" x2="1154" y2="486" stroke="#edf2f6"/>
  <text x="1164" y="290" class="axis">0.10</text>
  <text x="1164" y="340" class="axis">0.06</text>
  <text x="1164" y="390" class="axis">0.02</text>
  <text x="1164" y="440" class="axis">0.00</text>
  <text x="1164" y="490" class="axis">-0.04</text>
  <line x1="746" y1="436" x2="1154" y2="436" stroke="#c9d6e3" stroke-width="2.5"/>
  <polyline points="750,324 790,330 830,344 870,356 910,368 950,382 990,396 1030,410 1070,424 1110,438 1150,448" fill="none" stroke="#dc2626" stroke-width="6" stroke-linecap="round" stroke-linejoin="round"/>
  <polyline points="750,308 790,318 830,328 870,336 910,344 950,356 990,366 1030,378 1070,392 1110,404 1150,416" fill="none" stroke="#2563eb" stroke-width="5" stroke-linecap="round" stroke-linejoin="round"/>
  <rect x="764" y="436" width="18" height="18" rx="5" fill="#b8b8b8"/>
  <rect x="796" y="430" width="18" height="24" rx="5" fill="#b8b8b8"/>
  <rect x="828" y="420" width="18" height="34" rx="5" fill="#ff1744"/>
  <rect x="860" y="410" width="18" height="44" rx="5" fill="#c62828"/>
  <rect x="892" y="400" width="18" height="54" rx="5" fill="#ff1744"/>
  <rect x="924" y="390" width="18" height="64" rx="5" fill="#c62828"/>
  <rect x="956" y="380" width="18" height="74" rx="5" fill="#ff1744"/>
  <rect x="988" y="370" width="18" height="84" rx="5" fill="#c62828"/>
  <rect x="1020" y="360" width="18" height="94" rx="5" fill="#ff1744"/>
  <circle cx="924" cy="390" r="10" fill="#dc2626"/>
  <circle cx="1044" cy="414" r="10" fill="#dc2626"/>
  <rect x="888" y="274" width="172" height="30" rx="15" fill="#fff0f2" stroke="#efc3c9"/>
  <text x="914" y="294" class="small">빨강 다이버전스 유지 구간</text>
  <circle cx="924" cy="390" r="18" fill="#dc2626"/>
  <text x="918" y="397" class="body" fill="#ffffff">1</text>
  <rect x="986" y="562" width="168" height="34" rx="17" fill="#fff0f0" stroke="#efb4b4"/>
  <text x="1006" y="584" class="small">숏 매도: 빨강 유지 + 재하락 크로스</text>
  <circle cx="1112" cy="440" r="18" fill="#16a34a"/>
  <text x="1106" y="447" class="body" fill="#ffffff">2</text>
  <rect x="972" y="606" width="182" height="34" rx="17" fill="#ebfff3" stroke="#bfe7cf"/>
  <text x="992" y="628" class="small">숏 매수: 저점 재시험 / 둔화 확인</text>
  <text x="716" y="606" class="body">숏 전략</text>
  <text x="716" y="634" class="small">1. MACD가 Signal 아래인지 먼저 확인</text>
  <text x="716" y="656" class="small">2. 빨강 다이버전스가 몇 봉 유지되는지 확인</text>
  <text x="716" y="678" class="small">3. 같은 방향 빨강 원이 나오면 숏 우선</text>
  <text x="716" y="700" class="small">4. 빨강이 바로 사라지면 반등 함정 여부 점검</text>
</svg>
